# xmcd CD database file
#
# Track frame offsets:
#	150
#	14562
#	28146
#	41702
#	54942
#	83731
#	97305
#	112872
#	125884
#	139324
#	152586
#	166739
#	181855
#	195275
#	209482
#	225231
#	238003
#	253521
#	269366
#
# Disc length: 3783 seconds
#
# Revision: 0
# Processed by: cddbd v1.5.2PL0 Copyright (c) Steve Scherf et al.
# Submitted via: CDex 1.70beta2
#
DISCID=fe0ec513
DTITLE=Bessie Smith - Disc 1
DYEAR=1900
DGENRE=Jazz
TTITLE0=Trombone Cholly: Bessie Smith and Her Blue Boys
TTITLE1=Lock and Key: Bessie Smith 
TTITLE2=A Good Man Is Hard to Find: Bessie Smith
TTITLE3=Foolish Man Blues: Bessie Smith
TTITLE4=Empty Bed Blues (Parts 1 and 2): Bessie Smith
TTITLE5=Put It Right Here (Or Keep It Out There): Bessie Smith
TTITLE6=Poor Man’s Blues: Bessie Smith
TTITLE7=Me and My Gin: Bessie Smith
TTITLE8=Nobody Knows You When You’re Down and Out: Bessie Smith 
TTITLE9=Dirty No‑Gooder’s Blues: Bessie Smith 
TTITLE10=You Don’t Understand: Bessie Smith 
TTITLE11=Baby Have Pity on Me: Bessie Smith
TTITLE12=On Revival Day (A Rhythmic Spiritual): Bessie Smith
TTITLE13=Black Mountain Blues: Bessie Smith
TTITLE14=Long Old Road: Bessie Smith
TTITLE15=Need a Little Sugar in My Bowl: Bessie Smith 
TTITLE16=Do Your Duty: Bessie Smith with Buck and His Band
TTITLE17=Gimme a Pigfoot Bessie Smith with Buck and His Band
TTITLE18=Down in the Dumps: Bessie Smith with Buck and His Band 
EXTD=
EXTT0=
EXTT1=
EXTT2=
EXTT3=
EXTT4=
EXTT5=
EXTT6=
EXTT7=
EXTT8=
EXTT9=
EXTT10=
EXTT11=
EXTT12=
EXTT13=
EXTT14=
EXTT15=
EXTT16=
EXTT17=
EXTT18=
PLAYORDER=
